<mxfile host="app.diagrams.net" modified="2021-04-07T10:17:13.005Z" agent="5.0 (Macintosh; Intel Mac OS X 10_14_6) AppleWebKit/537.36 (KHTML, like Gecko) Chrome/89.0.4389.114 Safari/537.36" etag="gYqEg-Jp2iHhSx8jnNhm" version="14.5.8" type="github">
  <diagram id="b5k16KmtsEVbGf4KG_Uh" name="Page-1">
    <mxGraphModel dx="911" dy="591" grid="1" gridSize="10" guides="1" tooltips="1" connect="1" arrows="1" fold="1" page="1" pageScale="1" pageWidth="1100" pageHeight="850" math="0" shadow="0">
      <root>
        <mxCell id="0" />
        <mxCell id="1" parent="0" />
        <mxCell id="xa073FnbgVns5H8mTMt3-1" value="" style="rounded=0;whiteSpace=wrap;html=1;" parent="1" vertex="1">
          <mxGeometry x="140" y="140" width="480" height="140" as="geometry" />
        </mxCell>
        <mxCell id="ngumoF8mbZrpN-FmR0nr-1" value="_PROCS: GetProcess" style="rounded=0;whiteSpace=wrap;html=1;" parent="1" vertex="1">
          <mxGeometry x="244" y="219" width="180" height="40" as="geometry" />
        </mxCell>
        <mxCell id="ngumoF8mbZrpN-FmR0nr-5" style="edgeStyle=orthogonalEdgeStyle;rounded=0;orthogonalLoop=1;jettySize=auto;html=1;exitX=1;exitY=0.5;exitDx=0;exitDy=0;entryX=0;entryY=0.5;entryDx=0;entryDy=0;" parent="1" source="ngumoF8mbZrpN-FmR0nr-2" target="ngumoF8mbZrpN-FmR0nr-3" edge="1">
          <mxGeometry relative="1" as="geometry" />
        </mxCell>
        <mxCell id="ngumoF8mbZrpN-FmR0nr-2" value="advertiserChan" style="rounded=1;whiteSpace=wrap;html=1;" parent="1" vertex="1">
          <mxGeometry x="274" y="169" width="120" height="30" as="geometry" />
        </mxCell>
        <mxCell id="ngumoF8mbZrpN-FmR0nr-3" value="_PROCS: BatchAdd" style="rounded=0;whiteSpace=wrap;html=1;" parent="1" vertex="1">
          <mxGeometry x="424" y="164" width="180" height="40" as="geometry" />
        </mxCell>
        <mxCell id="ngumoF8mbZrpN-FmR0nr-6" style="edgeStyle=orthogonalEdgeStyle;rounded=0;orthogonalLoop=1;jettySize=auto;html=1;exitX=1;exitY=0.5;exitDx=0;exitDy=0;entryX=0;entryY=0.5;entryDx=0;entryDy=0;" parent="1" source="ngumoF8mbZrpN-FmR0nr-4" target="ngumoF8mbZrpN-FmR0nr-2" edge="1">
          <mxGeometry relative="1" as="geometry" />
        </mxCell>
        <mxCell id="ngumoF8mbZrpN-FmR0nr-4" value="http" style="rounded=0;whiteSpace=wrap;html=1;" parent="1" vertex="1">
          <mxGeometry x="160" y="167.75" width="80" height="32.5" as="geometry" />
        </mxCell>
        <mxCell id="ngumoF8mbZrpN-FmR0nr-7" value="mongo" style="shape=cylinder3;whiteSpace=wrap;html=1;boundedLbl=1;backgroundOutline=1;size=15;" parent="1" vertex="1">
          <mxGeometry x="429" y="320" width="170" height="60" as="geometry" />
        </mxCell>
        <mxCell id="ngumoF8mbZrpN-FmR0nr-9" value="" style="endArrow=classic;startArrow=classic;html=1;entryX=0.5;entryY=1;entryDx=0;entryDy=0;exitX=0.5;exitY=0;exitDx=0;exitDy=0;exitPerimeter=0;" parent="1" source="ngumoF8mbZrpN-FmR0nr-7" target="ngumoF8mbZrpN-FmR0nr-1" edge="1">
          <mxGeometry width="50" height="50" relative="1" as="geometry">
            <mxPoint x="490" y="310" as="sourcePoint" />
            <mxPoint x="540" y="260" as="targetPoint" />
          </mxGeometry>
        </mxCell>
        <mxCell id="ngumoF8mbZrpN-FmR0nr-10" value="qualification" style="edgeLabel;html=1;align=center;verticalAlign=middle;resizable=0;points=[];" parent="ngumoF8mbZrpN-FmR0nr-9" vertex="1" connectable="0">
          <mxGeometry x="-0.1475" y="-2" relative="1" as="geometry">
            <mxPoint as="offset" />
          </mxGeometry>
        </mxCell>
        <mxCell id="ngumoF8mbZrpN-FmR0nr-12" value="" style="endArrow=classic;startArrow=classic;html=1;exitX=0.5;exitY=0;exitDx=0;exitDy=0;exitPerimeter=0;entryX=0.5;entryY=1;entryDx=0;entryDy=0;" parent="1" source="ngumoF8mbZrpN-FmR0nr-7" target="ngumoF8mbZrpN-FmR0nr-3" edge="1">
          <mxGeometry width="50" height="50" relative="1" as="geometry">
            <mxPoint x="524" y="330" as="sourcePoint" />
            <mxPoint x="344" y="269" as="targetPoint" />
          </mxGeometry>
        </mxCell>
        <mxCell id="ngumoF8mbZrpN-FmR0nr-13" value="qualification" style="edgeLabel;html=1;align=center;verticalAlign=middle;resizable=0;points=[];" parent="ngumoF8mbZrpN-FmR0nr-12" vertex="1" connectable="0">
          <mxGeometry x="-0.1475" y="-2" relative="1" as="geometry">
            <mxPoint as="offset" />
          </mxGeometry>
        </mxCell>
      </root>
    </mxGraphModel>
  </diagram>
</mxfile>
